<svg width="146" height="34" viewBox="0 0 146 34" fill="white" xmlns="http://www.w3.org/2000/svg">
<path d="M42.2 20.28H43.8V22.8L41.72 25H36.68L34.6 22.8V12.2L36.68 10H41.72L43.8 12.2V14.72H42.2V13.02L40.94 11.72H37.48L36.44 12.78V22.22L37.46 23.28H40.92L42.2 21.98V20.28Z" fill="#21110E"/>
<path d="M46.3922 23.4H47.9922V11.6H46.3922V10H51.4322V11.6H49.8322V23.4H51.4322V25H46.3922V23.4Z" fill="#21110E"/>
<path d="M57.6642 23.4H59.0642V25H54.4242V23.4H55.8242V11.6H54.4242V10H58.5842L64.4242 22.74V11.6H63.0242V10H67.6642V11.6H66.2642V25H63.5042L57.6642 12.28V23.4Z" fill="#21110E"/>
<path d="M70.6547 10H80.1747V13.92H78.5747V11.6H73.8947V16.7H78.5747V18.3H73.8947V23.4H78.5747V21.08H80.1747V25H70.6547V23.4H72.0547V11.6H70.6547V10Z" fill="#21110E"/>
<path d="M83.3695 10H87.4495L91.2295 21.12L95.0095 10H99.0895V11.6H97.6895V23.4H99.0895V25H94.4495V23.4H95.8495V12.66L92.1095 23.4H90.3495L86.6095 12.66V23.4H88.0095V25H83.3695V23.4H84.7695V11.6H83.3695V10Z" fill="#21110E"/>
<path d="M104.595 10H109.935V11.6H109.015L112.535 23.4H113.535V25H109.295V23.4H110.695L109.775 20.32H104.755L103.835 23.4H105.235V25H100.995V23.4H101.995L105.515 11.6H104.595V10ZM107.255 11.9L105.235 18.72H109.295L107.255 11.9Z" fill="#21110E"/>
<path d="M1 4C1 3.44771 1.44772 3 2 3H144C144.552 3 145 3.44772 145 4V30C145 30.5523 144.552 31 144 31H2C1.44771 31 1 30.5523 1 30V4Z" stroke="#21110E"/>
<path d="M7 2C7 1.44772 7.44772 1 8 1H138C138.552 1 139 1.44772 139 2V32C139 32.5523 138.552 33 138 33H8C7.44771 33 7 32.5523 7 32V2Z" stroke="#21110E"/>
<path d="M42.2 20.28H43.8V22.8L41.72 25H36.68L34.6 22.8V12.2L36.68 10H41.72L43.8 12.2V14.72H42.2V13.02L40.94 11.72H37.48L36.44 12.78V22.22L37.46 23.28H40.92L42.2 21.98V20.28Z" stroke="#21110E"/>
<path d="M46.3922 23.4H47.9922V11.6H46.3922V10H51.4322V11.6H49.8322V23.4H51.4322V25H46.3922V23.4Z" stroke="#21110E"/>
<path d="M57.6642 23.4H59.0642V25H54.4242V23.4H55.8242V11.6H54.4242V10H58.5842L64.4242 22.74V11.6H63.0242V10H67.6642V11.6H66.2642V25H63.5042L57.6642 12.28V23.4Z" stroke="#21110E"/>
<path d="M70.6547 10H80.1747V13.92H78.5747V11.6H73.8947V16.7H78.5747V18.3H73.8947V23.4H78.5747V21.08H80.1747V25H70.6547V23.4H72.0547V11.6H70.6547V10Z" stroke="#21110E"/>
<path d="M83.3695 10H87.4495L91.2295 21.12L95.0095 10H99.0895V11.6H97.6895V23.4H99.0895V25H94.4495V23.4H95.8495V12.66L92.1095 23.4H90.3495L86.6095 12.66V23.4H88.0095V25H83.3695V23.4H84.7695V11.6H83.3695V10Z" stroke="#21110E"/>
<path d="M104.595 10H109.935V11.6H109.015L112.535 23.4H113.535V25H109.295V23.4H110.695L109.775 20.32H104.755L103.835 23.4H105.235V25H100.995V23.4H101.995L105.515 11.6H104.595V10ZM107.255 11.9L105.235 18.72H109.295L107.255 11.9Z" stroke="#21110E"/>
</svg>
